<svg xmlns="http://www.w3.org/2000/svg" width="320" height="38" viewBox="0 0 320 38"><path d="M28.819-2.763A14.36,14.36,0,0,1,18.662.915q-7.654,0-12.035-4.969Q2.246-9.048,2.246-17.744q0-9.4,4.983-14.494a14.755,14.755,0,0,1,11.024-4.433q8.954,0,13.094,5.944a12.963,12.963,0,0,1,2.455,6.7H26.388a10.183,10.183,0,0,0-1.853-3.9,7.492,7.492,0,0,0-5.993-2.338,7.4,7.4,0,0,0-6.379,3.3q-2.335,3.3-2.335,9.342T12.3-8.573a7.761,7.761,0,0,0,6.27,3.008,7.134,7.134,0,0,0,5.945-2.582,11.277,11.277,0,0,0,1.877-4.165H33.73A16.209,16.209,0,0,1,28.819-2.763ZM56.559.915q-7.606,0-11.626-4.19-5.392-5.14-5.392-14.81,0-9.865,5.392-14.81,4.02-4.19,11.626-4.19T68.185-32.9q5.368,4.945,5.368,14.81,0,9.671-5.368,14.81Q64.165.915,56.559.915Zm7-9.646q2.576-3.288,2.575-9.354,0-6.041-2.588-9.342a8.418,8.418,0,0,0-6.992-3.3,8.529,8.529,0,0,0-7.028,3.288q-2.624,3.288-2.624,9.354T49.53-8.731a8.529,8.529,0,0,0,7.028,3.288A8.463,8.463,0,0,0,63.563-8.731ZM109.379-.084h-7.414l-14.49-25.5v25.5H80.567V-35.989h7.775l14.129,25.065V-35.989h6.908Zm37.078,0h-7.414l-14.49-25.5v25.5h-6.908V-35.989h7.775l14.129,25.065V-35.989h6.908ZM179.54-15.771H162.306v9.232h19.641V-.084H155.061V-35.989h26.02v6.358H162.306v7.624H179.54Zm34.7,13.008A14.36,14.36,0,0,1,204.078.915q-7.654,0-12.035-4.969-4.381-4.994-4.381-13.69,0-9.4,4.982-14.494a14.755,14.755,0,0,1,11.024-4.433q8.954,0,13.094,5.944a12.963,12.963,0,0,1,2.455,6.7H211.8a10.183,10.183,0,0,0-1.853-3.9,7.492,7.492,0,0,0-5.993-2.338,7.4,7.4,0,0,0-6.379,3.3q-2.335,3.3-2.335,9.342t2.467,9.049a7.761,7.761,0,0,0,6.27,3.008,7.134,7.134,0,0,0,5.945-2.582,11.278,11.278,0,0,0,1.877-4.165h7.341A16.209,16.209,0,0,1,214.236-2.763Zm37.825-33.226v6.358H241.446V-.084h-7.462V-29.631H223.321v-6.358Zm30.507,20.218H265.334v9.232h19.641V-.084H258.089V-35.989h26.02v6.358H265.334v7.624h17.234ZM307.515-.084H292.231V-35.989h15.285a18.443,18.443,0,0,1,5.488.779,11.725,11.725,0,0,1,6.042,4.555,16.074,16.074,0,0,1,2.527,5.8,28.152,28.152,0,0,1,.674,5.944,24.1,24.1,0,0,1-2.84,12.131Q315.555-.084,307.515-.084Zm5.512-26.746q-1.709-2.923-6.764-2.923h-6.836V-6.32h6.836q5.247,0,7.317-5.237a18.671,18.671,0,0,0,1.131-6.845Q314.712-23.882,313.027-26.83Z" transform="translate(-2.246 37.085)" fill="#fff"/></svg>