<svg xmlns="http://www.w3.org/2000/svg" width="11.367" height="161.013" viewBox="0 0 11.367 161.013"><g transform="translate(-1292.948 -573.271)"><path d="M1528.09,785.784v-73.61" transform="translate(-230.09 -52)"/><path d="M1528.09,786.284a.5.5,0,0,1-.5-.5v-73.61a.5.5,0,0,1,1,0v73.61A.5.5,0,0,1,1528.09,786.284Z" transform="translate(-230.09 -52)"/><path d="M2.095-3.472a2.94,2.94,0,0,0,.432,1.487A2.864,2.864,0,0,0,5.083-.916,4.524,4.524,0,0,0,6.577-1.15a1.66,1.66,0,0,0,1.3-1.626,1.4,1.4,0,0,0-.549-1.252,5.547,5.547,0,0,0-1.743-.637L4.131-5a6.6,6.6,0,0,1-2.021-.71A2.251,2.251,0,0,1,1.084-7.72a3.1,3.1,0,0,1,1-2.38,4.026,4.026,0,0,1,2.842-.93,4.936,4.936,0,0,1,2.875.817A2.947,2.947,0,0,1,8.987-7.6H7.617a2.7,2.7,0,0,0-.469-1.326,2.723,2.723,0,0,0-2.263-.842,2.618,2.618,0,0,0-1.853.542,1.7,1.7,0,0,0-.564,1.26,1.23,1.23,0,0,0,.659,1.157,9.673,9.673,0,0,0,1.956.586l1.509.344A4.623,4.623,0,0,1,8.276-5.2,2.551,2.551,0,0,1,9.3-3.01,2.734,2.734,0,0,1,8-.454,5.822,5.822,0,0,1,4.98.315,4.518,4.518,0,0,1,1.838-.71,3.46,3.46,0,0,1,.725-3.472Zm15.386-7.581a4.409,4.409,0,0,1,3.171,1.077A3.8,3.8,0,0,1,21.9-7.529H20.484a2.957,2.957,0,0,0-.963-1.648A3.053,3.053,0,0,0,17.5-9.785a3.247,3.247,0,0,0-2.567,1.117,5.091,5.091,0,0,0-.978,3.424,4.973,4.973,0,0,0,.883,3.065A3.084,3.084,0,0,0,17.467-1,2.782,2.782,0,0,0,19.92-2.241a4.707,4.707,0,0,0,.667-1.714h1.421a4.855,4.855,0,0,1-1.26,2.849A4.483,4.483,0,0,1,17.291.278,4.563,4.563,0,0,1,14.141-.857a5.915,5.915,0,0,1-1.677-4.636,5.922,5.922,0,0,1,1.26-3.9A4.6,4.6,0,0,1,17.481-11.052Zm13.1,5.222A2.825,2.825,0,0,0,32.2-6.24a1.67,1.67,0,0,0,.6-1.479,1.587,1.587,0,0,0-.835-1.567,2.729,2.729,0,0,0-1.194-.22h-3.56V-5.83Zm-4.827-4.929h4.98a4.967,4.967,0,0,1,2.029.359,2.541,2.541,0,0,1,1.516,2.542,2.858,2.858,0,0,1-.4,1.582,2.884,2.884,0,0,1-1.117.989,2.2,2.2,0,0,1,.948.674,2.42,2.42,0,0,1,.355,1.355l.051,1.443a4.436,4.436,0,0,0,.1.916.9.9,0,0,0,.469.659V0H32.9a1.344,1.344,0,0,1-.117-.359,6.889,6.889,0,0,1-.073-.85L32.626-3a1.508,1.508,0,0,0-.784-1.414,3.241,3.241,0,0,0-1.311-.2H27.213V0H25.756Zm17.1-.293a4.926,4.926,0,0,1,4.219,1.831,5.934,5.934,0,0,1,1.069,3.655A6.4,6.4,0,0,1,46.921-1.56,4.851,4.851,0,0,1,42.827.315a4.894,4.894,0,0,1-3.9-1.641,6.2,6.2,0,0,1-1.267-4A6.36,6.36,0,0,1,38.74-9.06,4.7,4.7,0,0,1,42.856-11.052ZM43-.989a3.034,3.034,0,0,0,2.787-1.381,5.876,5.876,0,0,0,.861-3.175A4.529,4.529,0,0,0,45.658-8.6a3.387,3.387,0,0,0-2.714-1.157A3.534,3.534,0,0,0,40.219-8.61a4.831,4.831,0,0,0-1.055,3.38,4.938,4.938,0,0,0,.9,3.014A3.4,3.4,0,0,0,43-.989Zm8.677-9.771h1.458v9.478h5.449V0H51.68Zm10.142,0H63.28v9.478h5.449V0H61.822Z" transform="translate(1304 642) rotate(-90)"/></g></svg>